<svg width="69" height="72" viewBox="0 0 69 72" fill="none" xmlns="http://www.w3.org/2000/svg">
<g filter="url(#filter0_d)">
<path d="M35.7852 32.1397C35.7852 34.8202 33.7285 36.993 31.1914 36.993C28.6543 36.993 26.5977 34.8202 26.5977 32.1397C26.5977 29.4593 28.6543 27.2864 31.1914 27.2864C33.7285 27.2864 35.7852 29.4593 35.7852 32.1397Z" fill="#7A9CF8"/>
</g>
<g filter="url(#filter1_d)">
<path d="M41.936 23.5528C41.7152 22.9206 41.3629 22.3484 40.9052 21.8787C40.4606 21.395 39.9193 21.0228 39.3206 20.7895C38.835 20.5903 38.1055 20.3531 36.7618 20.2885C35.3083 20.2185 34.8726 20.2034 31.1929 20.2034C27.5128 20.2034 27.077 20.2181 25.6239 20.2881C24.2803 20.3531 23.5504 20.5903 23.0652 20.7895C22.4664 21.0228 21.9248 21.395 21.4806 21.8787C21.0228 22.3484 20.6705 22.9202 20.4493 23.5528C20.2607 24.0658 20.0363 24.8369 19.9751 26.2565C19.9088 27.7917 19.8945 28.2521 19.8945 32.1401C19.8945 36.0277 19.9088 36.4881 19.9751 38.0238C20.0363 39.4433 20.2607 40.214 20.4493 40.7271C20.6705 41.3596 21.0225 41.9315 21.4802 42.4012C21.9248 42.8848 22.4661 43.257 23.0648 43.4903C23.5504 43.69 24.2803 43.9271 25.6239 43.9917C27.077 44.0618 27.5125 44.0765 31.1925 44.0765C34.8729 44.0765 35.3087 44.0618 36.7615 43.9917C38.1051 43.9271 38.835 43.69 39.3206 43.4903C40.5225 43.0005 41.4724 41.9969 41.936 40.7271C42.1246 40.214 42.3491 39.4433 42.4106 38.0238C42.4769 36.4881 42.4908 36.0277 42.4908 32.1401C42.4908 28.2521 42.4769 27.7917 42.4106 26.2565C42.3495 24.8369 42.125 24.0658 41.936 23.5528ZM31.1929 39.6163C27.2843 39.6163 24.1158 36.2692 24.1158 32.1397C24.1158 28.0103 27.2843 24.6632 31.1929 24.6632C35.1011 24.6632 38.2695 28.0103 38.2695 32.1397C38.2695 36.2692 35.1011 39.6163 31.1929 39.6163ZM38.5493 26.1149C37.636 26.1149 36.8955 25.3325 36.8955 24.3676C36.8955 23.4027 37.636 22.6204 38.5493 22.6204C39.4626 22.6204 40.2031 23.4027 40.2031 24.3676C40.2028 25.3325 39.4626 26.1149 38.5493 26.1149Z" fill="#7A9CF8"/>
</g>
<g filter="url(#filter2_d)">
<path d="M31.1914 6.78357C17.9386 6.78357 7.19141 18.138 7.19141 32.1397C7.19141 46.1414 17.9386 57.4958 31.1914 57.4958C44.4442 57.4958 55.1914 46.1414 55.1914 32.1397C55.1914 18.138 44.4442 6.78357 31.1914 6.78357ZM44.8895 38.1425C44.8229 39.6925 44.5896 40.7506 44.249 41.6769C43.5331 43.6327 42.0697 45.1788 40.2185 45.9352C39.3422 46.295 38.3402 46.541 36.8735 46.6119C35.4039 46.6827 34.9344 46.6997 31.1918 46.6997C27.4487 46.6997 26.9796 46.6827 25.5096 46.6119C24.043 46.541 23.041 46.295 22.1647 45.9352C21.2448 45.5695 20.412 44.9965 19.7235 44.2556C19.0226 43.5286 18.4802 42.6484 18.1342 41.6769C17.7936 40.751 17.5603 39.6925 17.4937 38.1429C17.4259 36.5899 17.4102 36.0939 17.4102 32.1397C17.4102 28.1856 17.4259 27.6895 17.4933 26.1369C17.5599 24.587 17.7928 23.5288 18.1334 22.6025C18.4795 21.631 19.0222 20.7508 19.7235 20.0238C20.4116 19.2829 21.2448 18.7099 22.1643 18.3443C23.041 17.9844 24.0426 17.7384 25.5096 17.6676C26.9792 17.5968 27.4487 17.5797 31.1914 17.5797C34.9341 17.5797 35.4036 17.5968 36.8732 17.668C38.3402 17.7384 39.3418 17.9844 40.2185 18.3439C41.1381 18.7095 41.9712 19.2829 42.6597 20.0238C43.3606 20.7512 43.9033 21.631 44.249 22.6025C44.59 23.5288 44.8229 24.587 44.8899 26.1369C44.9569 27.6895 44.9727 28.1856 44.9727 32.1397C44.9727 36.0939 44.9569 36.5899 44.8895 38.1425Z" fill="#7A9CF8"/>
</g>
<defs>
<filter id="filter0_d" x="19.5977" y="21.2864" width="29.1875" height="29.7066" filterUnits="userSpaceOnUse" color-interpolation-filters="sRGB">
<feFlood flood-opacity="0" result="BackgroundImageFix"/>
<feColorMatrix in="SourceAlpha" type="matrix" values="0 0 0 0 0 0 0 0 0 0 0 0 0 0 0 0 0 0 127 0" result="hardAlpha"/>
<feOffset dx="3" dy="4"/>
<feGaussianBlur stdDeviation="5"/>
<feComposite in2="hardAlpha" operator="out"/>
<feColorMatrix type="matrix" values="0 0 0 0 0.32549 0 0 0 0 0.305882 0 0 0 0 0.290196 0 0 0 0.19 0"/>
<feBlend mode="normal" in2="BackgroundImageFix" result="effect1_dropShadow"/>
<feBlend mode="normal" in="SourceGraphic" in2="effect1_dropShadow" result="shape"/>
</filter>
<filter id="filter1_d" x="12.8945" y="14.2034" width="42.5963" height="43.8731" filterUnits="userSpaceOnUse" color-interpolation-filters="sRGB">
<feFlood flood-opacity="0" result="BackgroundImageFix"/>
<feColorMatrix in="SourceAlpha" type="matrix" values="0 0 0 0 0 0 0 0 0 0 0 0 0 0 0 0 0 0 127 0" result="hardAlpha"/>
<feOffset dx="3" dy="4"/>
<feGaussianBlur stdDeviation="5"/>
<feComposite in2="hardAlpha" operator="out"/>
<feColorMatrix type="matrix" values="0 0 0 0 0.32549 0 0 0 0 0.305882 0 0 0 0 0.290196 0 0 0 0.19 0"/>
<feBlend mode="normal" in2="BackgroundImageFix" result="effect1_dropShadow"/>
<feBlend mode="normal" in="SourceGraphic" in2="effect1_dropShadow" result="shape"/>
</filter>
<filter id="filter2_d" x="0.191406" y="0.783569" width="68" height="70.7123" filterUnits="userSpaceOnUse" color-interpolation-filters="sRGB">
<feFlood flood-opacity="0" result="BackgroundImageFix"/>
<feColorMatrix in="SourceAlpha" type="matrix" values="0 0 0 0 0 0 0 0 0 0 0 0 0 0 0 0 0 0 127 0" result="hardAlpha"/>
<feOffset dx="3" dy="4"/>
<feGaussianBlur stdDeviation="5"/>
<feComposite in2="hardAlpha" operator="out"/>
<feColorMatrix type="matrix" values="0 0 0 0 0.32549 0 0 0 0 0.305882 0 0 0 0 0.290196 0 0 0 0.19 0"/>
<feBlend mode="normal" in2="BackgroundImageFix" result="effect1_dropShadow"/>
<feBlend mode="normal" in="SourceGraphic" in2="effect1_dropShadow" result="shape"/>
</filter>
</defs>
</svg>
