<svg width="69" height="72" viewBox="0 0 69 72" fill="none" xmlns="http://www.w3.org/2000/svg">
<g filter="url(#filter0_d)">
<path d="M31.0645 6.78357C17.8116 6.78357 7.06445 18.138 7.06445 32.1397C7.06445 46.1414 17.8116 57.4958 31.0645 57.4958C44.3173 57.4958 55.0645 46.1414 55.0645 32.1397C55.0645 18.138 44.3173 6.78357 31.0645 6.78357ZM24.0903 45.1149H18.2452V26.5362H24.0903V45.1149ZM21.168 23.9993H21.1299C19.1685 23.9993 17.8999 22.5727 17.8999 20.7899C17.8999 18.9668 19.2073 17.5797 21.2068 17.5797C23.2063 17.5797 24.4368 18.9668 24.4749 20.7899C24.4749 22.5727 23.2063 23.9993 21.168 23.9993ZM45.1665 45.1149H39.3221V35.1757C39.3221 32.6779 38.4758 30.9744 36.361 30.9744C34.7463 30.9744 33.7847 32.1235 33.3621 33.2327C33.2075 33.6297 33.1698 34.1845 33.1698 34.7397V45.1149H27.3251C27.3251 45.1149 27.4016 28.2792 27.3251 26.5362H33.1698V29.1667C33.9465 27.9008 35.3363 26.1001 38.4374 26.1001C42.283 26.1001 45.1665 28.7555 45.1665 34.4619V45.1149Z" fill="#7A9CF8"/>
</g>
<defs>
<filter id="filter0_d" x="0.0644531" y="0.783569" width="68" height="70.7123" filterUnits="userSpaceOnUse" color-interpolation-filters="sRGB">
<feFlood flood-opacity="0" result="BackgroundImageFix"/>
<feColorMatrix in="SourceAlpha" type="matrix" values="0 0 0 0 0 0 0 0 0 0 0 0 0 0 0 0 0 0 127 0" result="hardAlpha"/>
<feOffset dx="3" dy="4"/>
<feGaussianBlur stdDeviation="5"/>
<feComposite in2="hardAlpha" operator="out"/>
<feColorMatrix type="matrix" values="0 0 0 0 0.32549 0 0 0 0 0.305882 0 0 0 0 0.290196 0 0 0 0.19 0"/>
<feBlend mode="normal" in2="BackgroundImageFix" result="effect1_dropShadow"/>
<feBlend mode="normal" in="SourceGraphic" in2="effect1_dropShadow" result="shape"/>
</filter>
</defs>
</svg>
