<svg width="139" height="122" viewBox="0 0 139 122" fill="none" xmlns="http://www.w3.org/2000/svg">
<circle cx="82.584" cy="66" r="56" fill="url(#paint0_linear)"/>
<g filter="url(#filter0_d)">
<circle cx="27" cy="26.0773" r="20" fill="url(#paint1_linear)"/>
</g>
<path d="M28.458 32.3745C28.258 32.3745 28.0847 32.3012 27.938 32.1545C27.7914 32.0078 27.718 31.8212 27.718 31.5945V28.6345H20.558C20.238 28.6345 20.0047 28.4945 19.858 28.2145C19.7247 27.9212 19.7514 27.6545 19.938 27.4145L27.858 17.0545C28.018 16.8412 28.2314 16.7345 28.498 16.7345C28.7114 16.7345 28.8847 16.8145 29.018 16.9745C29.1647 17.1212 29.238 17.3078 29.238 17.5345V27.2345H30.818C31.0314 27.2345 31.2114 27.2878 31.358 27.3945C31.5047 27.5012 31.578 27.6878 31.578 27.9545C31.578 28.1278 31.5047 28.2878 31.358 28.4345C31.2114 28.5678 31.0314 28.6345 30.818 28.6345H29.238V31.5945C29.238 31.8212 29.1647 32.0078 29.018 32.1545C28.8714 32.3012 28.6847 32.3745 28.458 32.3745ZM27.718 27.2345V19.5945L21.838 27.2345H27.718Z" fill="#FEFBFB"/>
<path d="M27.718 28.6345H28.718V27.6345H27.718V28.6345ZM19.858 28.2145L18.9477 28.6283L18.9592 28.6538L18.9722 28.6785L19.858 28.2145ZM19.938 27.4145L20.7274 28.0285L20.7325 28.0218L19.938 27.4145ZM27.858 17.0545L28.6525 17.6619L28.658 17.6545L27.858 17.0545ZM29.018 16.9745L28.2498 17.6147L28.2789 17.6495L28.3109 17.6816L29.018 16.9745ZM29.238 27.2345H28.238V28.2345H29.238V27.2345ZM31.358 27.3945L31.9462 26.5858L31.9462 26.5858L31.358 27.3945ZM31.358 28.4345L32.0307 29.1745L32.0483 29.1584L32.0652 29.1416L31.358 28.4345ZM29.238 28.6345V27.6345H28.238V28.6345H29.238ZM29.018 32.1545L28.3109 31.4474H28.3109L29.018 32.1545ZM27.718 27.2345V28.2345H28.718V27.2345H27.718ZM27.718 19.5945H28.718V16.6556L26.9256 18.9846L27.718 19.5945ZM21.838 27.2345L21.0456 26.6246L19.8065 28.2345H21.838V27.2345ZM28.458 31.3745C28.4834 31.3745 28.5235 31.3798 28.5677 31.3985C28.6112 31.4169 28.6367 31.439 28.6452 31.4474L27.2309 32.8616C27.5574 33.1881 27.982 33.3745 28.458 33.3745V31.3745ZM28.6452 31.4474C28.6656 31.4679 28.6885 31.4998 28.7038 31.5389C28.7185 31.5762 28.718 31.5989 28.718 31.5945H26.718C26.718 32.0593 26.8784 32.5091 27.2309 32.8616L28.6452 31.4474ZM28.718 31.5945V28.6345H26.718V31.5945H28.718ZM27.718 27.6345H20.558V29.6345H27.718V27.6345ZM20.558 27.6345C20.5471 27.6345 20.5933 27.6335 20.6575 27.672C20.7225 27.711 20.7459 27.7544 20.7439 27.7505L18.9722 28.6785C19.1168 28.9546 19.3303 29.208 19.6286 29.387C19.9261 29.5656 20.249 29.6345 20.558 29.6345V27.6345ZM20.7684 27.8007C20.76 27.7821 20.7806 27.8193 20.7731 27.894C20.7652 27.9724 20.7337 28.0203 20.7274 28.0285L19.1487 26.8006C18.9557 27.0487 18.8175 27.35 18.783 27.695C18.7489 28.0363 18.8228 28.3535 18.9477 28.6283L20.7684 27.8007ZM20.7325 28.0218L28.6525 17.6618L27.0636 16.4472L19.1436 26.8072L20.7325 28.0218ZM28.658 17.6545C28.658 17.6545 28.658 17.6545 28.658 17.6546C28.6579 17.6547 28.6579 17.6548 28.6578 17.6549C28.6576 17.6551 28.6573 17.6555 28.6569 17.6559C28.6561 17.6569 28.6549 17.6582 28.6533 17.66C28.6501 17.6634 28.6453 17.6682 28.6388 17.6738C28.6253 17.6853 28.6073 17.6979 28.5853 17.7089C28.5374 17.7329 28.5014 17.7345 28.498 17.7345V15.7345C27.9166 15.7345 27.4069 15.9894 27.058 16.4545L28.658 17.6545ZM28.498 17.7345C28.4771 17.7345 28.4284 17.7299 28.369 17.7025C28.3089 17.6747 28.2694 17.6382 28.2498 17.6147L29.7863 16.3343C29.4577 15.94 28.9998 15.7345 28.498 15.7345V17.7345ZM28.3109 17.6816C28.2904 17.6611 28.2676 17.6292 28.2523 17.5902C28.2376 17.5528 28.238 17.5301 28.238 17.5345H30.238C30.238 17.0697 30.0777 16.6199 29.7252 16.2674L28.3109 17.6816ZM28.238 17.5345V27.2345H30.238V17.5345H28.238ZM29.238 28.2345H30.818V26.2345H29.238V28.2345ZM30.818 28.2345C30.8414 28.2345 30.8428 28.2374 30.829 28.2333C30.8221 28.2313 30.8128 28.2279 30.8019 28.2226C30.791 28.2172 30.7801 28.2107 30.7699 28.2032L31.9462 26.5858C31.6 26.334 31.2043 26.2345 30.818 26.2345V28.2345ZM30.7699 28.2032C30.6731 28.1329 30.6177 28.0447 30.5923 27.9802C30.5709 27.9256 30.578 27.9074 30.578 27.9545H32.578C32.578 27.526 32.4573 26.9575 31.9462 26.5858L30.7699 28.2032ZM30.578 27.9545C30.578 27.8951 30.5917 27.8365 30.614 27.7879C30.6348 27.7424 30.6549 27.7234 30.6509 27.7274L32.0652 29.1416C32.3599 28.8469 32.578 28.4441 32.578 27.9545H30.578ZM30.6854 27.6946C30.7037 27.6779 30.7317 27.6594 30.7657 27.6468C30.7986 27.6346 30.8193 27.6345 30.818 27.6345V29.6345C31.2595 29.6345 31.6852 29.4885 32.0307 29.1745L30.6854 27.6946ZM30.818 27.6345H29.238V29.6345H30.818V27.6345ZM28.238 28.6345V31.5945H30.238V28.6345H28.238ZM28.238 31.5945C28.238 31.5989 28.2376 31.5762 28.2523 31.5389C28.2676 31.4998 28.2904 31.4679 28.3109 31.4474L29.7252 32.8616C30.0777 32.5091 30.238 32.0593 30.238 31.5945H28.238ZM28.3109 31.4474C28.3314 31.4269 28.3633 31.4041 28.4024 31.3888C28.4397 31.3741 28.4624 31.3745 28.458 31.3745V33.3745C28.9228 33.3745 29.3726 33.2141 29.7252 32.8616L28.3109 31.4474ZM28.718 27.2345V19.5945H26.718V27.2345H28.718ZM26.9256 18.9846L21.0456 26.6246L22.6305 27.8444L28.5105 20.2044L26.9256 18.9846ZM21.838 28.2345H27.718V26.2345H21.838V28.2345Z" fill="#FEFBFB"/>
<path d="M93.8357 84.4214L92.3424 72.4654C92.1308 70.7719 91.3078 69.2141 90.0281 68.0848C88.7485 66.9556 87.1004 66.3327 85.3937 66.3334H80.2511C78.5452 66.3339 76.8983 66.9572 75.6196 68.0864C74.3409 69.2155 73.5186 70.7727 73.3071 72.4654L71.8114 84.4214C71.7293 85.0782 71.7879 85.745 71.9833 86.3775C72.1787 87.01 72.5064 87.5937 72.9447 88.0898C73.383 88.5859 73.9218 88.9831 74.5254 89.2549C75.1289 89.5268 75.7834 89.6672 76.4454 89.6667H89.2041C89.8658 89.6669 90.5201 89.5262 91.1234 89.2542C91.7266 88.9822 92.2652 88.585 92.7032 88.0889C93.1412 87.5928 93.4687 87.0093 93.664 86.377C93.8593 85.7447 93.9178 85.078 93.8357 84.4214V84.4214Z" stroke="white" stroke-width="5" stroke-linecap="round" stroke-linejoin="round"/>
<path d="M82.8262 57C86.6922 57 89.8262 53.866 89.8262 50C89.8262 46.134 86.6922 43 82.8262 43C78.9602 43 75.8262 46.134 75.8262 50C75.8262 53.866 78.9602 57 82.8262 57Z" stroke="white" stroke-width="5"/>
<path d="M64.1589 64C66.7362 64 68.8255 61.9106 68.8255 59.3333C68.8255 56.756 66.7362 54.6666 64.1589 54.6666C61.5815 54.6666 59.4922 56.756 59.4922 59.3333C59.4922 61.9106 61.5815 64 64.1589 64Z" stroke="white" stroke-width="5"/>
<path d="M101.493 64C104.07 64 106.16 61.9106 106.16 59.3333C106.16 56.756 104.07 54.6666 101.493 54.6666C98.9155 54.6666 96.8262 56.756 96.8262 59.3333C96.8262 61.9106 98.9155 64 101.493 64Z" stroke="white" stroke-width="5"/>
<path d="M64.1582 71H63.4442C62.3396 70.9999 61.2706 71.3916 60.4277 72.1056C59.5847 72.8195 59.0223 73.8094 58.8406 74.899L58.0636 79.5657C57.9521 80.2343 57.9876 80.9191 58.1676 81.5726C58.3476 82.2261 58.6678 82.8326 59.1059 83.3498C59.5441 83.867 60.0896 84.2825 60.7047 84.5675C61.3197 84.8525 61.9894 85.0001 62.6672 85H71.1582" stroke="white" stroke-width="5" stroke-linecap="round" stroke-linejoin="round"/>
<path d="M101.492 71H102.206C103.311 70.9999 104.38 71.3916 105.223 72.1056C106.066 72.8195 106.628 73.8094 106.81 74.899L107.587 79.5657C107.698 80.2343 107.663 80.9191 107.483 81.5726C107.303 82.2261 106.983 82.8326 106.544 83.3498C106.106 83.867 105.561 84.2825 104.946 84.5675C104.331 84.8525 103.661 85.0001 102.983 85H94.4922" stroke="white" stroke-width="5" stroke-linecap="round" stroke-linejoin="round"/>
<defs>
<filter id="filter0_d" x="0" y="0.0772705" width="60" height="60" filterUnits="userSpaceOnUse" color-interpolation-filters="sRGB">
<feFlood flood-opacity="0" result="BackgroundImageFix"/>
<feColorMatrix in="SourceAlpha" type="matrix" values="0 0 0 0 0 0 0 0 0 0 0 0 0 0 0 0 0 0 127 0" result="hardAlpha"/>
<feOffset dx="3" dy="4"/>
<feGaussianBlur stdDeviation="5"/>
<feComposite in2="hardAlpha" operator="out"/>
<feColorMatrix type="matrix" values="0 0 0 0 0.32549 0 0 0 0 0.305882 0 0 0 0 0.290196 0 0 0 0.19 0"/>
<feBlend mode="normal" in2="BackgroundImageFix" result="effect1_dropShadow"/>
<feBlend mode="normal" in="SourceGraphic" in2="effect1_dropShadow" result="shape"/>
</filter>
<linearGradient id="paint0_linear" x1="82.584" y1="10" x2="82.584" y2="122" gradientUnits="userSpaceOnUse">
<stop stop-color="#9381FF"/>
<stop offset="1" stop-color="#789CF7"/>
</linearGradient>
<linearGradient id="paint1_linear" x1="27" y1="71.84" x2="27" y2="1.83998" gradientUnits="userSpaceOnUse">
<stop offset="0.458333" stop-color="#FFC1BA"/>
<stop offset="1" stop-color="#FEDF67"/>
</linearGradient>
</defs>
</svg>
