<svg width="140" height="121" viewBox="0 0 140 121" fill="none" xmlns="http://www.w3.org/2000/svg">
<ellipse cx="83.703" cy="65.1411" rx="55.6366" ry="55.811" fill="url(#paint0_linear)"/>
<path d="M81.8537 44.1912L82.5377 37.146C82.8084 34.3148 85.4522 32.3937 88.1227 33.0836C92.1405 34.1245 94.9627 37.8567 94.9627 42.1362V51.162C94.9627 53.1694 94.9627 54.1745 95.3969 54.9091C95.6437 55.3284 95.9828 55.6823 96.3872 55.9351C97.1009 56.3842 98.0734 56.3842 100.015 56.3842H101.193C106.258 56.3842 108.788 56.3842 110.347 57.544C111.515 58.4153 112.339 59.6911 112.666 61.1365C113.101 63.0695 112.128 65.4873 110.18 70.3169L109.211 72.7258C108.648 74.1209 108.418 75.6278 108.539 77.1271C109.229 85.6741 102.451 92.874 94.1657 92.4011L63.1657 90.6197C59.7784 90.4264 58.0863 90.3283 56.5577 88.9752C55.0261 87.622 54.7377 86.2273 54.1637 83.4407C52.9421 77.5126 52.9979 71.3922 54.3273 65.4873C55.1689 61.7759 58.7138 59.7774 62.3747 60.2532C72.0815 61.5023 80.8813 54.2489 81.8537 44.1941V44.1912Z" stroke="#FEFBFB" stroke-width="7" stroke-linecap="round" stroke-linejoin="round"/>
<path d="M68.1595 61.1962L67.752 62.5552C65.1145 71.3475 65.2568 80.7399 68.1595 89.4483" stroke="#FEFBFB" stroke-width="7" stroke-linecap="round" stroke-linejoin="round"/>
<g filter="url(#filter0_d)">
<ellipse cx="27.8368" cy="25.9989" rx="19.9364" ry="19.9989" fill="url(#paint1_linear)"/>
</g>
<path d="M28.6696 34.1994C28.4029 34.1994 28.1696 34.0994 27.9696 33.8994C27.7696 33.6994 27.6696 33.4594 27.6696 33.1794V20.9794L26.2096 21.5994C25.9829 21.6927 25.7696 21.7394 25.5696 21.7394C25.2763 21.7394 25.0296 21.6461 24.8296 21.4594C24.6429 21.2727 24.5496 21.0327 24.5496 20.7394C24.5496 20.5261 24.6029 20.3327 24.7096 20.1594C24.8163 19.9861 24.9829 19.8594 25.2096 19.7794L28.3296 18.6594C28.3963 18.6327 28.4629 18.6127 28.5296 18.5994C28.5963 18.5861 28.6563 18.5794 28.7096 18.5794C29.0163 18.5794 29.2563 18.6794 29.4296 18.8794C29.6163 19.0661 29.7096 19.3127 29.7096 19.6194V33.1794C29.7096 33.4594 29.6096 33.6994 29.4096 33.8994C29.2096 34.0994 28.9629 34.1994 28.6696 34.1994Z" fill="#FEFBFB"/>
<path d="M27.6696 20.9794H28.6696V19.4683L27.2787 20.059L27.6696 20.9794ZM26.2096 21.5994L26.5904 22.5241L26.6005 22.5198L26.2096 21.5994ZM24.8296 21.4594L24.1225 22.1665L24.1347 22.1787L24.1473 22.1905L24.8296 21.4594ZM25.2096 19.7794L25.5424 20.7224L25.5475 20.7206L25.2096 19.7794ZM28.3296 18.6594L28.6675 19.6006L28.6844 19.5945L28.701 19.5879L28.3296 18.6594ZM29.4296 18.8794L28.6739 19.5343L28.6973 19.5613L28.7225 19.5865L29.4296 18.8794ZM29.4096 33.8994L30.1167 34.6065H30.1167L29.4096 33.8994ZM28.6696 33.1994C28.6658 33.1994 28.667 33.1991 28.672 33.2001C28.6771 33.2011 28.683 33.2029 28.6885 33.2053C28.694 33.2076 28.6963 33.2093 28.6951 33.2085C28.6937 33.2075 28.6874 33.2029 28.6767 33.1923L27.2625 34.6065C27.6374 34.9814 28.1204 35.1994 28.6696 35.1994V33.1994ZM28.6767 33.1923C28.6681 33.1837 28.6648 33.1789 28.6646 33.1786C28.6644 33.1783 28.6659 33.1806 28.6677 33.1848C28.6694 33.189 28.6702 33.1922 28.6704 33.1931C28.6705 33.1937 28.6696 33.1896 28.6696 33.1794H26.6696C26.6696 33.7276 26.8771 34.2211 27.2625 34.6065L28.6767 33.1923ZM28.6696 33.1794V20.9794H26.6696V33.1794H28.6696ZM27.2787 20.059L25.8187 20.679L26.6005 22.5198L28.0605 21.8998L27.2787 20.059ZM25.8289 20.6747C25.6965 20.7292 25.6131 20.7394 25.5696 20.7394V22.7394C25.9261 22.7394 26.2694 22.6562 26.5904 22.5241L25.8289 20.6747ZM25.5696 20.7394C25.5494 20.7394 25.5361 20.7378 25.5287 20.7365C25.5249 20.7359 25.5223 20.7352 25.5208 20.7348C25.5193 20.7344 25.5186 20.7342 25.5185 20.7341C25.5184 20.7341 25.5186 20.7342 25.519 20.7343C25.5193 20.7345 25.5195 20.7346 25.5195 20.7346C25.5194 20.7346 25.5189 20.7342 25.5177 20.7333C25.5166 20.7324 25.5146 20.7309 25.5119 20.7283L24.1473 22.1905C24.5466 22.5631 25.043 22.7394 25.5696 22.7394V20.7394ZM25.5367 20.7523C25.5367 20.7522 25.5394 20.7551 25.5432 20.7607C25.5469 20.7665 25.5498 20.7723 25.5516 20.777C25.5534 20.7815 25.553 20.7821 25.5521 20.777C25.5512 20.7718 25.5496 20.7597 25.5496 20.7394H23.5496C23.5496 21.2657 23.7266 21.7706 24.1225 22.1665L25.5367 20.7523ZM25.5496 20.7394C25.5496 20.7018 25.5564 20.6915 25.5613 20.6835L23.858 19.6353C23.6495 19.974 23.5496 20.3503 23.5496 20.7394H25.5496ZM25.5613 20.6835C25.5553 20.6932 25.5481 20.7028 25.5401 20.7116C25.5321 20.7204 25.5248 20.7267 25.5197 20.7306C25.5092 20.7385 25.5127 20.7329 25.5424 20.7224L24.8768 18.8364C24.4751 18.9782 24.1054 19.2332 23.858 19.6353L25.5613 20.6835ZM25.5475 20.7206L28.6675 19.6006L27.9917 17.7182L24.8717 18.8382L25.5475 20.7206ZM28.701 19.5879C28.7141 19.5826 28.7222 19.5807 28.7257 19.58L28.3335 17.6188C28.2037 17.6448 28.0784 17.6828 27.9582 17.7309L28.701 19.5879ZM28.7257 19.58C28.7342 19.5783 28.7371 19.5781 28.735 19.5783C28.7331 19.5785 28.7243 19.5794 28.7096 19.5794V17.5794C28.5754 17.5794 28.4481 17.5959 28.3335 17.6188L28.7257 19.58ZM28.7096 19.5794C28.7542 19.5794 28.7567 19.5865 28.735 19.5775C28.7245 19.5731 28.7121 19.5665 28.6997 19.5575C28.6874 19.5485 28.6788 19.5399 28.6739 19.5343L30.1853 18.2245C29.791 17.7695 29.2553 17.5794 28.7096 17.5794V19.5794ZM28.7225 19.5865C28.7204 19.5844 28.7164 19.5799 28.7122 19.5734C28.708 19.5668 28.7055 19.5613 28.7043 19.5583C28.7018 19.5518 28.7096 19.5676 28.7096 19.6194H30.7096C30.7096 19.0939 30.5413 18.5769 30.1367 18.1723L28.7225 19.5865ZM28.7096 19.6194V33.1794H30.7096V19.6194H28.7096ZM28.7096 33.1794C28.7096 33.1896 28.7087 33.1937 28.7089 33.1931C28.709 33.1922 28.7098 33.189 28.7115 33.1848C28.7133 33.1806 28.7148 33.1783 28.7146 33.1786C28.7144 33.1789 28.7111 33.1837 28.7025 33.1923L30.1167 34.6065C30.5021 34.2211 30.7096 33.7276 30.7096 33.1794H28.7096ZM28.7025 33.1923C28.6959 33.1989 28.6928 33.2009 28.6933 33.2005C28.694 33.2001 28.6961 33.1988 28.6989 33.1977C28.7017 33.1965 28.7021 33.1968 28.6988 33.1974C28.6953 33.198 28.686 33.1994 28.6696 33.1994V35.1994C29.2172 35.1994 29.7216 35.0017 30.1167 34.6065L28.7025 33.1923Z" fill="#FEFBFB"/>
<defs>
<filter id="filter0_d" x="0.900391" y="0" width="59.8727" height="59.9977" filterUnits="userSpaceOnUse" color-interpolation-filters="sRGB">
<feFlood flood-opacity="0" result="BackgroundImageFix"/>
<feColorMatrix in="SourceAlpha" type="matrix" values="0 0 0 0 0 0 0 0 0 0 0 0 0 0 0 0 0 0 127 0" result="hardAlpha"/>
<feOffset dx="3" dy="4"/>
<feGaussianBlur stdDeviation="5"/>
<feComposite in2="hardAlpha" operator="out"/>
<feColorMatrix type="matrix" values="0 0 0 0 0.32549 0 0 0 0 0.305882 0 0 0 0 0.290196 0 0 0 0.19 0"/>
<feBlend mode="normal" in2="BackgroundImageFix" result="effect1_dropShadow"/>
<feBlend mode="normal" in="SourceGraphic" in2="effect1_dropShadow" result="shape"/>
</filter>
<linearGradient id="paint0_linear" x1="83.703" y1="9.33008" x2="83.703" y2="120.952" gradientUnits="userSpaceOnUse">
<stop stop-color="#9381FF"/>
<stop offset="1" stop-color="#789CF7"/>
</linearGradient>
<linearGradient id="paint1_linear" x1="27.8368" y1="71.759" x2="27.8368" y2="1.76295" gradientUnits="userSpaceOnUse">
<stop offset="0.458333" stop-color="#FFC1BA"/>
<stop offset="1" stop-color="#FEDF67"/>
</linearGradient>
</defs>
</svg>
