<svg width="140" height="122" viewBox="0 0 140 122" fill="none" xmlns="http://www.w3.org/2000/svg">
<circle cx="83.5586" cy="66" r="56" fill="url(#paint0_linear)"/>
<path d="M62 55.9209L106.692 55.9208" stroke="#FEFBFB" stroke-width="6" stroke-linecap="round"/>
<path d="M65.7869 59.0695C65.7501 58.6667 65.8201 58.2622 65.9924 57.8814C66.1647 57.5006 66.4356 57.1515 66.7884 56.856C67.1411 56.5604 67.568 56.3248 68.0426 56.1636C68.5171 56.0025 69.0291 55.9193 69.5467 55.9193H99.1427C99.6602 55.9193 100.172 56.0025 100.647 56.1636C101.121 56.3248 101.548 56.5604 101.901 56.856C102.254 57.1515 102.525 57.5006 102.697 57.8814C102.869 58.2622 102.939 58.6667 102.902 59.0695L99.6722 94.3659C99.6046 95.1079 99.179 95.8024 98.4814 96.3095C97.7837 96.8165 96.8658 97.0984 95.9124 97.0984H72.7769C71.8235 97.0984 70.9056 96.8165 70.2079 96.3095C69.5103 95.8024 69.0848 95.1079 69.0171 94.3659L65.7869 59.0695V59.0695Z" stroke="#FEFBFB" stroke-width="6"/>
<path d="M84.3457 46.9026V38.9675C84.3457 37.9153 84.7315 36.9061 85.4181 36.1621C86.1048 35.418 87.0361 35 88.0072 35H93.4995" stroke="#FEFBFB" stroke-width="6" stroke-linecap="round"/>
<path d="M66.8607 49.5525C67.0074 48.866 67.4614 48.2423 68.1418 47.7923C68.8223 47.3423 69.6852 47.0952 70.5771 47.095H98.1151C99.0074 47.0949 99.8707 47.3418 100.552 47.7918C101.232 48.2418 101.687 48.8657 101.833 49.5525L103.192 55.9193H65.5L66.8607 49.5525Z" stroke="#FEFBFB" stroke-width="6"/>
<path d="M81.9219 88.6932C81.9219 90.9235 80.1138 92.7316 77.8834 92.7316C75.653 92.7316 73.845 90.9235 73.845 88.6932C73.845 86.4628 75.653 84.6547 77.8834 84.6547C80.1138 84.6547 81.9219 86.4628 81.9219 88.6932Z" fill="#FEFBFB"/>
<path d="M92.9603 88.6932C92.9603 90.9235 91.1523 92.7316 88.9219 92.7316C86.6915 92.7316 84.8834 90.9235 84.8834 88.6932C84.8834 86.4628 86.6915 84.6547 88.9219 84.6547C91.1523 84.6547 92.9603 86.4628 92.9603 88.6932Z" fill="#FEFBFB"/>
<path d="M86.1627 79C86.1627 81.2304 84.3546 83.0384 82.1242 83.0384C79.8938 83.0384 78.0858 81.2304 78.0858 79C78.0858 76.7696 79.8938 74.9615 82.1242 74.9615C84.3546 74.9615 86.1627 76.7696 86.1627 79Z" fill="#FEFBFB"/>
<path d="M97.2009 79C97.2009 81.2304 95.3928 83.0384 93.1624 83.0384C90.9321 83.0384 89.124 81.2304 89.124 79C89.124 76.7696 90.9321 74.9615 93.1624 74.9615C95.3928 74.9615 97.2009 76.7696 97.2009 79Z" fill="#FEFBFB"/>
<path d="M79.4988 70.3847C79.4988 72.615 77.6907 74.4231 75.4603 74.4231C73.23 74.4231 71.4219 72.615 71.4219 70.3847C71.4219 68.1543 73.23 66.3462 75.4603 66.3462C77.6907 66.3462 79.4988 68.1543 79.4988 70.3847Z" fill="#FEFBFB"/>
<g filter="url(#filter0_d)">
<circle cx="27" cy="26" r="20" fill="url(#paint1_linear)"/>
</g>
<path d="M26.5996 33.5001C25.6663 33.5001 24.8263 33.3001 24.0796 32.9001C23.3463 32.4868 22.7663 31.9268 22.3396 31.2201C21.9129 30.5135 21.6996 29.7135 21.6996 28.8201C21.6996 28.5935 21.7663 28.4001 21.8996 28.2401C22.0329 28.0801 22.2129 28.0001 22.4396 28.0001C22.6663 28.0001 22.8463 28.0801 22.9796 28.2401C23.1129 28.4001 23.1796 28.5935 23.1796 28.8201C23.1796 29.4335 23.3263 29.9868 23.6196 30.4801C23.9129 30.9601 24.3129 31.3468 24.8196 31.6401C25.3396 31.9201 25.9129 32.0601 26.5396 32.0601C27.5796 32.0601 28.3929 31.7735 28.9796 31.2001C29.5663 30.6135 29.8596 29.8601 29.8596 28.9401C29.8596 28.2868 29.7196 27.7201 29.4396 27.2401C29.1596 26.7468 28.7796 26.3668 28.2996 26.1001C27.8196 25.8201 27.2796 25.6801 26.6796 25.6801C26.4663 25.6801 26.2863 25.6068 26.1396 25.4601C25.9929 25.3135 25.9196 25.1268 25.9196 24.9001C25.9196 24.6868 25.9929 24.5068 26.1396 24.3601C26.2863 24.2135 26.4663 24.1401 26.6796 24.1401C27.1463 24.1401 27.5729 24.0268 27.9596 23.8001C28.3596 23.5601 28.6796 23.2468 28.9196 22.8601C29.1596 22.4735 29.2796 22.0468 29.2796 21.5801C29.2796 20.8735 29.0396 20.2868 28.5596 19.8201C28.0796 19.3401 27.4396 19.1001 26.6396 19.1001C25.7996 19.1001 25.1063 19.3401 24.5596 19.8201C24.0129 20.2868 23.7396 20.8668 23.7396 21.5601C23.7396 21.7868 23.6663 21.9801 23.5196 22.1401C23.3863 22.2868 23.2129 22.3601 22.9996 22.3601C22.7729 22.3601 22.5929 22.2868 22.4596 22.1401C22.3263 21.9801 22.2596 21.7935 22.2596 21.5801C22.2596 20.8468 22.4463 20.1868 22.8196 19.6001C23.2063 19.0001 23.7263 18.5335 24.3796 18.2001C25.0329 17.8535 25.7863 17.6801 26.6396 17.6801C27.4129 17.6801 28.1063 17.8535 28.7196 18.2001C29.3463 18.5335 29.8396 19.0001 30.1996 19.6001C30.5729 20.1868 30.7596 20.8468 30.7596 21.5801C30.7596 22.0335 30.6463 22.4735 30.4196 22.9001C30.2063 23.3268 29.9196 23.7135 29.5596 24.0601C29.1996 24.3935 28.8063 24.6535 28.3796 24.8401C29.4063 25.1468 30.1663 25.6801 30.6596 26.4401C31.1529 27.2001 31.3996 28.0335 31.3996 28.9401C31.3996 29.8201 31.1863 30.6068 30.7596 31.3001C30.3463 31.9801 29.7729 32.5201 29.0396 32.9201C28.3063 33.3068 27.4929 33.5001 26.5996 33.5001Z" fill="#FEFBFB"/>
<path d="M24.0796 32.9001L23.5886 33.7713L23.5979 33.7766L23.6074 33.7816L24.0796 32.9001ZM22.3396 31.2201L23.1957 30.7033L22.3396 31.2201ZM21.8996 28.2401L21.1314 27.6L21.1314 27.6L21.8996 28.2401ZM22.9796 28.2401L23.7478 27.6L23.7478 27.6L22.9796 28.2401ZM23.6196 30.4801L22.76 30.9913L22.7663 31.0016L23.6196 30.4801ZM24.8196 31.6401L24.3186 32.5056L24.3319 32.5133L24.3455 32.5206L24.8196 31.6401ZM28.9796 31.2001L29.6786 31.9154L29.6867 31.9073L28.9796 31.2001ZM29.4396 27.2401L28.5699 27.7338L28.5758 27.744L29.4396 27.2401ZM28.2996 26.1001L27.7957 26.9639L27.8048 26.9692L27.814 26.9743L28.2996 26.1001ZM27.9596 23.8001L28.4654 24.6629L28.4741 24.6576L27.9596 23.8001ZM28.9196 22.8601L29.7692 23.3875L28.9196 22.8601ZM28.5596 19.8201L27.8524 20.5273L27.8625 20.5371L28.5596 19.8201ZM24.5596 19.8201L25.2089 20.5808L25.2194 20.5716L24.5596 19.8201ZM23.5196 22.1401L22.7824 21.4644L22.7797 21.4675L23.5196 22.1401ZM22.4596 22.1401L21.6914 22.7803L21.7052 22.7969L21.7197 22.8128L22.4596 22.1401ZM22.8196 19.6001L21.979 19.0584L21.9759 19.0633L22.8196 19.6001ZM24.3796 18.2001L24.8341 19.0909L24.8412 19.0873L24.8483 19.0835L24.3796 18.2001ZM28.7196 18.2001L28.2276 19.0707L28.2387 19.077L28.25 19.083L28.7196 18.2001ZM30.1996 19.6001L29.3421 20.1146L29.3489 20.1259L29.3559 20.137L30.1996 19.6001ZM30.4196 22.9001L29.5365 22.431L29.5307 22.4419L29.5252 22.4529L30.4196 22.9001ZM29.5596 24.0601L30.239 24.7939L30.2462 24.7873L30.2533 24.7805L29.5596 24.0601ZM28.3796 24.8401L27.9788 23.924L25.4794 25.0175L28.0934 25.7983L28.3796 24.8401ZM30.7596 31.3001L29.9079 30.776L29.9051 30.7807L30.7596 31.3001ZM29.0396 32.9201L29.5061 33.8048L29.5185 33.798L29.0396 32.9201ZM26.5996 32.5001C25.8139 32.5001 25.1389 32.3332 24.5518 32.0187L23.6074 33.7816C24.5137 34.2671 25.5186 34.5001 26.5996 34.5001V32.5001ZM24.5706 32.029C23.9844 31.6986 23.5314 31.2593 23.1957 30.7033L21.4835 31.737C22.0011 32.5943 22.7082 33.2751 23.5886 33.7713L24.5706 32.029ZM23.1957 30.7033C22.8709 30.1653 22.6996 29.5468 22.6996 28.8201H20.6996C20.6996 29.8801 20.955 30.8616 21.4835 31.737L23.1957 30.7033ZM22.6996 28.8201C22.6996 28.8058 22.7015 28.8122 22.695 28.8311C22.6919 28.8401 22.6877 28.8496 22.6824 28.859C22.6771 28.8683 22.6719 28.8755 22.6678 28.8803L21.1314 27.6C20.8347 27.956 20.6996 28.3817 20.6996 28.8201H22.6996ZM22.6678 28.8803C22.6421 28.9112 22.5988 28.9481 22.5407 28.974C22.485 28.9987 22.4452 29.0001 22.4396 29.0001V27.0001C21.9459 27.0001 21.473 27.19 21.1314 27.6L22.6678 28.8803ZM22.4396 29.0001C22.434 29.0001 22.3942 28.9987 22.3385 28.974C22.2804 28.9481 22.2371 28.9112 22.2114 28.8803L23.7478 27.6C23.4062 27.19 22.9333 27.0001 22.4396 27.0001V29.0001ZM22.2114 28.8803C22.2074 28.8755 22.2021 28.8683 22.1969 28.859C22.1916 28.8496 22.1873 28.8401 22.1842 28.8311C22.1777 28.8122 22.1796 28.8058 22.1796 28.8201H24.1796C24.1796 28.3817 24.0445 27.956 23.7478 27.6L22.2114 28.8803ZM22.1796 28.8201C22.1796 29.6006 22.3685 30.3326 22.7601 30.9912L24.4791 29.9691C24.2841 29.641 24.1796 29.2664 24.1796 28.8201H22.1796ZM22.7663 31.0016C23.1502 31.6297 23.6738 32.1323 24.3186 32.5056L25.3206 30.7747C24.9521 30.5614 24.6757 30.2906 24.4729 29.9587L22.7663 31.0016ZM24.3455 32.5206C25.0201 32.8839 25.7579 33.0601 26.5396 33.0601V31.0601C26.068 31.0601 25.6591 30.9564 25.2937 30.7597L24.3455 32.5206ZM26.5396 33.0601C27.7676 33.0601 28.8585 32.7168 29.6785 31.9153L28.2807 30.485C27.9274 30.8302 27.3917 31.0601 26.5396 31.0601V33.0601ZM29.6867 31.9073C30.4822 31.1118 30.8596 30.0937 30.8596 28.9401H28.8596C28.8596 29.6266 28.6504 30.1152 28.2725 30.493L29.6867 31.9073ZM30.8596 28.9401C30.8596 28.1411 30.6872 27.3942 30.3034 26.7363L28.5758 27.744C28.752 28.0461 28.8596 28.4325 28.8596 28.9401H30.8596ZM30.3093 26.7465C29.9418 26.099 29.4313 25.5849 28.7853 25.226L27.814 26.9743C28.128 27.1487 28.3774 27.3946 28.5699 27.7338L30.3093 26.7465ZM28.8035 25.2364C28.1584 24.8601 27.4421 24.6801 26.6796 24.6801V26.6801C27.1171 26.6801 27.4808 26.7802 27.7957 26.9639L28.8035 25.2364ZM26.6796 24.6801C26.6896 24.6801 26.7209 24.6823 26.7619 24.6991C26.8035 24.716 26.8322 24.7385 26.8467 24.753L25.4325 26.1673C25.7726 26.5074 26.2095 26.6801 26.6796 26.6801V24.6801ZM26.8467 24.753C26.8672 24.7735 26.89 24.8054 26.9054 24.8445C26.92 24.8818 26.9196 24.9045 26.9196 24.9001H24.9196C24.9196 25.3649 25.08 25.8147 25.4325 26.1673L26.8467 24.753ZM26.9196 24.9001C26.9196 24.9102 26.9174 24.9414 26.9007 24.9824C26.8838 25.024 26.8612 25.0528 26.8467 25.0673L25.4325 23.653C25.0924 23.9931 24.9196 24.4301 24.9196 24.9001H26.9196ZM26.8467 25.0673C26.8322 25.0818 26.8035 25.1043 26.7619 25.1212C26.7209 25.1379 26.6896 25.1401 26.6796 25.1401V23.1401C26.2095 23.1401 25.7726 23.3129 25.4325 23.653L26.8467 25.0673ZM26.6796 25.1401C27.3164 25.1401 27.9188 24.9832 28.4653 24.6628L27.4539 22.9374C27.2271 23.0704 26.9761 23.1401 26.6796 23.1401V25.1401ZM28.4741 24.6576C29.0069 24.3379 29.4432 23.9128 29.7692 23.3875L28.07 22.3328C27.916 22.5809 27.7123 22.7824 27.4451 22.9427L28.4741 24.6576ZM29.7692 23.3875C30.1101 22.8383 30.2796 22.2282 30.2796 21.5801H28.2796C28.2796 21.8654 28.2091 22.1086 28.07 22.3328L29.7692 23.3875ZM30.2796 21.5801C30.2796 20.6201 29.942 19.7695 29.2567 19.1032L27.8625 20.5371C28.1372 20.8042 28.2796 21.1268 28.2796 21.5801H30.2796ZM29.2667 19.113C28.566 18.4123 27.6539 18.1001 26.6396 18.1001V20.1001C27.2254 20.1001 27.5932 20.268 27.8525 20.5273L29.2667 19.113ZM26.6396 18.1001C25.5967 18.1001 24.6568 18.404 23.8998 19.0687L25.2194 20.5716C25.5557 20.2763 26.0025 20.1001 26.6396 20.1001V18.1001ZM23.9103 19.0596C23.1505 19.7083 22.7396 20.5621 22.7396 21.5601H24.7396C24.7396 21.1715 24.8754 20.8654 25.2089 20.5807L23.9103 19.0596ZM22.7396 21.5601C22.7396 21.564 22.7394 21.5475 22.7496 21.5205C22.7601 21.4927 22.7744 21.4732 22.7825 21.4644L24.2568 22.8159C24.5806 22.4626 24.7396 22.0248 24.7396 21.5601H22.7396ZM22.7797 21.4675C22.8051 21.4395 22.8462 21.4069 22.9 21.3842C22.952 21.3622 22.9902 21.3601 22.9996 21.3601V23.3601C23.4706 23.3601 23.921 23.1852 24.2595 22.8128L22.7797 21.4675ZM22.9996 21.3601C22.9944 21.3601 23.0239 21.3595 23.0719 21.3791C23.123 21.3999 23.1678 21.4326 23.1995 21.4675L21.7197 22.8128C22.0706 23.1988 22.5358 23.3601 22.9996 23.3601V21.3601ZM23.2278 21.5C23.2326 21.5056 23.2432 21.5209 23.2514 21.5438C23.2594 21.5664 23.2596 21.581 23.2596 21.5801H21.2596C21.2596 22.0212 21.4044 22.4359 21.6914 22.7803L23.2278 21.5ZM23.2596 21.5801C23.2596 21.0261 23.3977 20.5543 23.6633 20.137L21.9759 19.0633C21.4948 19.8193 21.2596 20.6675 21.2596 21.5801H23.2596ZM23.6602 20.1418C23.9485 19.6945 24.3335 19.3463 24.8341 19.0909L23.9251 17.3094C23.1191 17.7206 22.4641 18.3058 21.979 19.0584L23.6602 20.1418ZM24.8483 19.0835C25.3365 18.8245 25.9244 18.6801 26.6396 18.6801V16.6801C25.6481 16.6801 24.7294 16.8825 23.9109 17.3168L24.8483 19.0835ZM26.6396 18.6801C27.2578 18.6801 27.7787 18.817 28.2276 19.0707L29.2117 17.3296C28.4339 16.89 27.5681 16.6801 26.6396 16.6801V18.6801ZM28.25 19.083C28.7188 19.3324 29.077 19.6727 29.3421 20.1146L31.0571 19.0856C30.6023 18.3276 29.9738 17.7346 29.1892 17.3173L28.25 19.083ZM29.3559 20.137C29.6215 20.5543 29.7596 21.0261 29.7596 21.5801H31.7596C31.7596 20.6675 31.5244 19.8193 31.0433 19.0633L29.3559 20.137ZM29.7596 21.5801C29.7596 21.8592 29.6916 22.139 29.5365 22.431L31.3027 23.3693C31.6009 22.8079 31.7596 22.2078 31.7596 21.5801H29.7596ZM29.5252 22.4529C29.3651 22.773 29.1479 23.0683 28.866 23.3398L30.2533 24.7805C30.6913 24.3587 31.0474 23.8806 31.314 23.3474L29.5252 22.4529ZM28.8802 23.3264C28.5978 23.5879 28.2977 23.7845 27.9788 23.924L28.7804 25.7563C29.3149 25.5225 29.8014 25.1991 30.239 24.7939L28.8802 23.3264ZM28.0934 25.7983C28.9362 26.0501 29.4795 26.4588 29.8208 26.9846L31.4984 25.8957C30.853 24.9015 29.8763 24.2436 28.6658 23.882L28.0934 25.7983ZM29.8208 26.9846C30.2089 27.5824 30.3996 28.2266 30.3996 28.9401H32.3996C32.3996 27.8404 32.097 26.8179 31.4984 25.8957L29.8208 26.9846ZM30.3996 28.9401C30.3996 29.6506 30.2298 30.2531 29.908 30.776L31.6113 31.8242C32.1428 30.9606 32.3996 29.9897 32.3996 28.9401H30.3996ZM29.9051 30.7807C29.5878 31.3026 29.1475 31.7222 28.5608 32.0423L29.5185 33.798C30.3984 33.3181 31.1047 32.6576 31.6141 31.8196L29.9051 30.7807ZM28.5732 32.0356C27.9947 32.3406 27.3433 32.5001 26.5996 32.5001V34.5001C27.6426 34.5001 28.6179 34.273 29.506 33.8047L28.5732 32.0356Z" fill="#FEFBFB"/>
<defs>
<filter id="filter0_d" x="0" y="0" width="60" height="60" filterUnits="userSpaceOnUse" color-interpolation-filters="sRGB">
<feFlood flood-opacity="0" result="BackgroundImageFix"/>
<feColorMatrix in="SourceAlpha" type="matrix" values="0 0 0 0 0 0 0 0 0 0 0 0 0 0 0 0 0 0 127 0" result="hardAlpha"/>
<feOffset dx="3" dy="4"/>
<feGaussianBlur stdDeviation="5"/>
<feComposite in2="hardAlpha" operator="out"/>
<feColorMatrix type="matrix" values="0 0 0 0 0.32549 0 0 0 0 0.305882 0 0 0 0 0.290196 0 0 0 0.19 0"/>
<feBlend mode="normal" in2="BackgroundImageFix" result="effect1_dropShadow"/>
<feBlend mode="normal" in="SourceGraphic" in2="effect1_dropShadow" result="shape"/>
</filter>
<linearGradient id="paint0_linear" x1="83.5586" y1="10" x2="83.5586" y2="122" gradientUnits="userSpaceOnUse">
<stop stop-color="#9381FF"/>
<stop offset="1" stop-color="#789CF7"/>
</linearGradient>
<linearGradient id="paint1_linear" x1="27" y1="71.7627" x2="27" y2="1.76271" gradientUnits="userSpaceOnUse">
<stop offset="0.458333" stop-color="#FFC1BA"/>
<stop offset="1" stop-color="#FEDF67"/>
</linearGradient>
</defs>
</svg>
