<svg width="68" height="72" viewBox="0 0 68 72" fill="none" xmlns="http://www.w3.org/2000/svg">
<g filter="url(#filter0_d)">
<path d="M31 6.31091C17.7472 6.31091 7 17.6654 7 31.6671C7 45.6687 17.7472 57.0232 31 57.0232C44.2528 57.0232 55 45.6687 55 31.6671C55 17.6654 44.2528 6.31091 31 6.31091ZM41.9581 26.0809C41.9688 26.3305 41.9739 26.5812 41.9739 26.8331C41.9739 34.5236 36.4331 43.3918 26.3004 43.3922H26.3008H26.3004C23.1895 43.3922 20.2946 42.4288 17.8567 40.7779C18.2877 40.8316 18.7264 40.8583 19.1707 40.8583C21.7517 40.8583 24.127 39.9282 26.0126 38.3671C23.6011 38.3199 21.5679 36.6372 20.8662 34.3247C21.202 34.3928 21.5474 34.4299 21.9015 34.4299C22.4043 34.4299 22.8914 34.3584 23.3542 34.2249C20.8336 33.6917 18.9348 31.3382 18.9348 28.52C18.9348 28.4937 18.9348 28.4701 18.9355 28.4457C19.6779 28.8817 20.5267 29.1441 21.4305 29.1735C19.9514 28.1308 18.9791 26.3483 18.9791 24.329C18.9791 23.2627 19.252 22.2637 19.7251 21.4037C22.4417 24.9253 26.5015 27.2413 31.0798 27.4846C30.9854 27.0583 30.9366 26.6141 30.9366 26.1575C30.9366 22.9447 33.4038 20.3381 36.4459 20.3381C38.0305 20.3381 39.4617 21.0458 40.4669 22.1771C41.7219 21.9155 42.9004 21.4311 43.965 20.7645C43.553 22.1229 42.6799 23.2627 41.5425 23.9835C42.6569 23.8427 43.7189 23.5305 44.7058 23.067C43.9686 24.2342 43.0337 25.2595 41.9581 26.0809Z" fill="#7A9CF8"/>
</g>
<defs>
<filter id="filter0_d" x="0" y="0.310913" width="68" height="70.7123" filterUnits="userSpaceOnUse" color-interpolation-filters="sRGB">
<feFlood flood-opacity="0" result="BackgroundImageFix"/>
<feColorMatrix in="SourceAlpha" type="matrix" values="0 0 0 0 0 0 0 0 0 0 0 0 0 0 0 0 0 0 127 0" result="hardAlpha"/>
<feOffset dx="3" dy="4"/>
<feGaussianBlur stdDeviation="5"/>
<feComposite in2="hardAlpha" operator="out"/>
<feColorMatrix type="matrix" values="0 0 0 0 0.32549 0 0 0 0 0.305882 0 0 0 0 0.290196 0 0 0 0.19 0"/>
<feBlend mode="normal" in2="BackgroundImageFix" result="effect1_dropShadow"/>
<feBlend mode="normal" in="SourceGraphic" in2="effect1_dropShadow" result="shape"/>
</filter>
</defs>
</svg>
